<svg id="Group_23" data-name="Group 23" xmlns="http://www.w3.org/2000/svg" viewBox="0 0 195.91 56.6"><defs><style>.cls-1{fill:#fff;}.cls-2{fill:#e73118;}.cls-3{fill:#ef991b;}.cls-4,.cls-5{isolation:isolate;font-family:MicrosoftJhengHeiUIBold, Microsoft JhengHei UI;}.cls-4{font-size:22.54px;}.cls-5{font-size:25.43px;}.cls-6{fill:#dee336;}.cls-7{fill:#47b253;}.cls-8{fill:#0bd;}.cls-9{fill:#373a94;}.cls-10{fill:#853c92;}.cls-11{fill:#231815;}</style></defs><path id="Intersection_1" data-name="Intersection 1" class="cls-1" d="M20.71,40.86a14.85,14.85,0,0,1-1.5-1.36H41.42a14.85,14.85,0,0,1-1.5,1.36Z" transform="translate(-1.58 -0.65)"/><circle id="Ellipse_11" data-name="Ellipse 11" class="cls-2" cx="28.3" cy="28.3" r="28.3"/><ellipse id="Ellipse_9" data-name="Ellipse 9" class="cls-3" cx="28.3" cy="28.3" rx="24.34" ry="24.24"/><text class="cls-4" transform="translate(113.27 40.73) scale(0.92 1)">虛擬實境</text><text class="cls-5" transform="translate(69.22 40.73) scale(0.84 1)">VR</text><g id="Ellipse_11-2" data-name="Ellipse 11"><ellipse id="Ellipse_13" data-name="Ellipse 13" class="cls-6" cx="28.29" cy="28.3" rx="20.97" ry="21.06"/><g id="Group_19" data-name="Group 19"><path id="Path_22" data-name="Path 22" class="cls-6" d="M29.87,8.43A20.52,20.52,0,1,1,9.45,29h0A20.46,20.46,0,0,1,29.86,8.43h0m0-1.08A21.6,21.6,0,1,0,51.38,29,21.55,21.55,0,0,0,29.87,7.35Z" transform="translate(-1.58 -0.65)"/></g></g><g id="Ellipse_11-3" data-name="Ellipse 11"><ellipse id="Ellipse_13-2" data-name="Ellipse 13" class="cls-7" cx="28.29" cy="27.51" rx="18.18" ry="18.13"/><g id="Group_19-2" data-name="Group 19"><path id="Path_22-2" data-name="Path 22" class="cls-7" d="M29.87,10.49A17.67,17.67,0,1,1,12.16,28.16h0a17.69,17.69,0,0,1,17.7-17.67h0m0-.93a18.6,18.6,0,1,0,18.65,18.6A18.62,18.62,0,0,0,29.87,9.56Z" transform="translate(-1.58 -0.65)"/></g></g><g id="Ellipse_11-4" data-name="Ellipse 11"><ellipse id="Ellipse_13-3" data-name="Ellipse 13" class="cls-8" cx="28.73" cy="27.51" rx="15.8" ry="15.97"/><g id="Group_19-3" data-name="Group 19"><path id="Path_22-3" data-name="Path 22" class="cls-1" d="M30.31,12.6a15.56,15.56,0,1,1-15.4,15.56h0A15.48,15.48,0,0,1,30.3,12.6h0m0-.82A16.38,16.38,0,1,0,46.52,28.16,16.28,16.28,0,0,0,30.31,11.78Z" transform="translate(-1.58 -0.65)"/></g></g><g id="Ellipse_11-5" data-name="Ellipse 11"><ellipse id="Ellipse_13-4" data-name="Ellipse 13" class="cls-9" cx="28.73" cy="27.51" rx="12.68" ry="12.63"/><g id="Group_19-4" data-name="Group 19"><path id="Path_22-4" data-name="Path 22" class="cls-9" d="M30.31,15.85A12.31,12.31,0,1,1,18,28.16h0A12.31,12.31,0,0,1,30.3,15.85h0m0-.65a13,13,0,1,0,13,13A13,13,0,0,0,30.31,15.2Z" transform="translate(-1.58 -0.65)"/></g></g><g id="Ellipse_11-6" data-name="Ellipse 11"><ellipse id="Ellipse_13-5" data-name="Ellipse 13" class="cls-10" cx="28.73" cy="27.51" rx="9.91" ry="9.97"/><g id="Group_19-5" data-name="Group 19"><path id="Path_22-5" data-name="Path 22" class="cls-10" d="M30.31,18.45a9.71,9.71,0,1,1-9.65,9.71h0a9.67,9.67,0,0,1,9.64-9.71h0m0-.52A10.23,10.23,0,1,0,40.47,28.16,10.2,10.2,0,0,0,30.31,17.93Z" transform="translate(-1.58 -0.65)"/></g></g><g id="Ellipse_11-7" data-name="Ellipse 11"><ellipse id="Ellipse_13-6" data-name="Ellipse 13" class="cls-11" cx="28.3" cy="27.51" rx="8.07" ry="8.2"/><g id="Group_19-6" data-name="Group 19"><path id="Path_22-6" data-name="Path 22" class="cls-11" d="M29.87,20.17a8,8,0,1,1-7.86,8h0a7.93,7.93,0,0,1,7.86-8h0m0-.42a8.41,8.41,0,1,0,8.28,8.41A8.34,8.34,0,0,0,29.87,19.75Z" transform="translate(-1.58 -0.65)"/></g></g></svg>