<?xml version="1.0" encoding="utf-8"?>
<!-- Generator: Adobe Illustrator 25.0.0, SVG Export Plug-In . SVG Version: 6.00 Build 0)  -->
<svg version="1.1" id="Group_23" xmlns="http://www.w3.org/2000/svg" xmlns:xlink="http://www.w3.org/1999/xlink" x="0px" y="0px"
	 viewBox="0 0 195.9 56.6" style="enable-background:new 0 0 195.9 56.6;" xml:space="preserve">
<style type="text/css">
	.st0{font-family:'MicrosoftJhengHeiUIBold';}
	.st1{font-size:26.6215px;}
	.st2{font-size:30.2631px;}
	.st3{fill:#FFFFFF;}
	.st4{fill:#E73118;}
	.st5{fill:#EF991B;}
	.st6{fill:#DEE336;}
	.st7{fill:#47B253;}
	.st8{fill:#00BBDD;}
	.st9{fill:#373A94;}
	.st10{fill:#853C92;}
	.st11{fill:#231815;}
</style>
<text transform="matrix(0.7789 0 0 1 111.7549 39.9961)" class="st0 st1">虛擬實境</text>
<text transform="matrix(0.9264 0 0 1 62.1489 40.7773)" class="st0 st2">VR</text>
<g>
	<path id="Intersection_1" class="st3" d="M20.3,40.3c-0.5-0.4-0.9-0.8-1.4-1.3h20.7c-0.5,0.5-0.9,0.8-1.4,1.3H20.3z"/>
	<ellipse id="Ellipse_11" class="st4" cx="28.9" cy="29.3" rx="26.4" ry="26.2"/>
	<ellipse id="Ellipse_9" class="st5" cx="28.9" cy="29.3" rx="22.7" ry="22.4"/>
	<g id="Ellipse_11-2">
		<ellipse id="Ellipse_13" class="st6" cx="28.9" cy="29.3" rx="19.6" ry="19.6"/>
		<g id="Group_19">
			<path id="Path_22" class="st6" d="M28.9,10.3c10.5-0.1,19.2,8.4,19.2,18.9s-8.5,19.1-19,19.1C18.5,48.4,9.8,39.9,9.8,29.4l0,0
				l0,0C9.7,18.9,18.2,10.3,28.9,10.3C28.8,10.3,28.9,10.3,28.9,10.3L28.9,10.3 M28.9,9.3c-11.1,0-20.1,8.9-20.2,19.9
				c0,11,9,20,20.1,20.1s20.1-8.9,20.2-19.9l0,0C49,18.2,40.1,9.3,28.9,9.3L28.9,9.3L28.9,9.3z"/>
		</g>
	</g>
	<g id="Ellipse_11-3">
		<ellipse id="Ellipse_13-2" class="st7" cx="28.9" cy="28.5" rx="17" ry="16.8"/>
		<g id="Group_19-2">
			<path id="Path_22-2" class="st7" d="M28.9,12.1c9.1,0,16.5,7.4,16.4,16.4S37.8,45,28.8,44.9c-9,0-16.4-7.3-16.4-16.4l0,0
				C12.4,19.5,19.7,12.1,28.9,12.1L28.9,12.1 M28.9,11.3c-9.6,0-17.4,7.8-17.4,17.3s7.8,17.3,17.4,17.2c9.6,0,17.3-7.7,17.3-17.3
				C46.2,19,38.5,11.3,28.9,11.3L28.9,11.3L28.9,11.3z"/>
		</g>
	</g>
	<g id="Ellipse_11-4">
		<ellipse id="Ellipse_13-3" class="st8" cx="29.2" cy="28.5" rx="14.7" ry="14.8"/>
		<g id="Group_19-3">
			<path id="Path_22-3" class="st3" d="M29.2,14.2c8-0.1,14.6,6.3,14.6,14.3S37.5,42.9,29.6,43c-8,0.1-14.6-6.3-14.6-14.3
				c0-0.1,0-0.1,0-0.2l0,0C14.9,20.7,21.3,14.2,29.2,14.2L29.2,14.2 M29.2,13.3c-8.4-0.1-15.4,6.7-15.4,15S20.6,43.7,29,43.7
				s15.4-6.7,15.4-15c0-0.1,0-0.1,0-0.2C44.4,20.2,37.7,13.4,29.2,13.3C29.3,13.3,29.2,13.3,29.2,13.3L29.2,13.3z"/>
		</g>
	</g>
	<g id="Ellipse_11-5">
		<ellipse id="Ellipse_13-4" class="st9" cx="29.2" cy="28.5" rx="11.8" ry="11.7"/>
		<g id="Group_19-4">
			<path id="Path_22-4" class="st9" d="M29.2,17.1c6.3,0,11.5,5.1,11.5,11.4S35.6,40,29.2,40s-11.5-5.1-11.5-11.4l0,0l0,0
				C17.8,22.2,22.9,17.1,29.2,17.1L29.2,17.1 M29.2,16.6c-6.7,0-12.1,5.4-12.1,12.1s5.4,12.1,12.1,12.1s12.1-5.4,12.1-12.1l0,0
				C41.4,22,36,16.6,29.2,16.6L29.2,16.6z"/>
		</g>
	</g>
	<g id="Ellipse_11-6">
		<ellipse id="Ellipse_13-5" class="st10" cx="29.5" cy="27.9" rx="9.2" ry="9.3"/>
		<g id="Group_19-5">
			<path id="Path_22-5" class="st10" d="M29.5,18.8c5,0,9,4,9.1,8.9c0.1,4.9-4,9-9,9.1c-5,0-9-4-9.1-8.9c0,0,0,0,0-0.1l0,0
				C20.5,22.9,24.5,18.9,29.5,18.8L29.5,18.8L29.5,18.8 M29.5,18.4c-5.2,0-9.6,4.2-9.6,9.5s4.2,9.6,9.5,9.6c5.2,0,9.6-4.2,9.6-9.5
				c0,0,0,0,0-0.1C39,22.6,34.8,18.5,29.5,18.4L29.5,18.4z"/>
		</g>
	</g>
	<g id="Ellipse_11-7_1_">
		<ellipse id="Ellipse_13-6_1_" class="st11" cx="28.9" cy="27.8" rx="7.6" ry="7.6"/>
		<g id="Group_19-6_1_">
			<path id="Path_22-6_1_" class="st11" d="M28.9,20.4c4.1-0.1,7.6,3.2,7.6,7.3s-3.2,7.5-7.4,7.5s-7.6-3.2-7.6-7.3v-0.1l0,0
				C21.5,23.8,24.8,20.5,28.9,20.4L28.9,20.4L28.9,20.4 M28.9,20.1c-4.3-0.1-7.9,3.3-7.9,7.7s3.4,7.9,7.7,7.9s7.9-3.3,7.9-7.7v-0.1
				C36.6,23.6,33.2,20.1,28.9,20.1L28.9,20.1z"/>
		</g>
	</g>
	<g id="Ellipse_11-7_2_">
		<ellipse id="Ellipse_13-6_2_" class="st3" cx="23.4" cy="26.1" rx="1.8" ry="1.8"/>
		<g id="Group_19-6_2_">
			<path id="Path_22-6_2_" class="st3" d="M23.4,24.4c1,0,1.8,0.7,1.8,1.8s-0.7,1.8-1.8,1.8c-1,0-1.8-0.7-1.8-1.8l0,0l0,0
				C21.6,25.2,22.4,24.4,23.4,24.4L23.4,24.4L23.4,24.4 M23.4,24.3c-1,0-1.9,0.8-1.9,1.9s0.8,1.9,1.9,1.9c1,0,1.9-0.8,1.9-1.9l0,0
				C25.2,25.1,24.4,24.3,23.4,24.3L23.4,24.3z"/>
		</g>
	</g>
	<g id="Ellipse_11-7_4_">
		<ellipse id="Ellipse_13-6_4_" class="st3" cx="33.4" cy="32.3" rx="1.8" ry="1.8"/>
		<g id="Group_19-6_4_">
			<path id="Path_22-6_4_" class="st3" d="M33.4,30.5c1,0,1.8,0.7,1.8,1.8c0,1-0.7,1.8-1.8,1.8s-1.8-0.7-1.8-1.8l0,0l0,0
				C31.6,31.4,32.5,30.5,33.4,30.5L33.4,30.5L33.4,30.5 M33.4,30.5c-1,0-1.9,0.8-1.9,1.9c0,1,0.8,1.9,1.9,1.9s1.9-0.8,1.9-1.9l0,0
				C35.3,31.3,34.4,30.5,33.4,30.5L33.4,30.5z"/>
		</g>
	</g>
</g>
<g>
	<g id="Ellipse_11-6_1_">
		<ellipse id="Ellipse_13-5_1_" class="st10" cx="118.5" cy="-42" rx="9.9" ry="10"/>
		<g id="Group_19-5_1_">
			<path id="Path_22-5_1_" class="st10" d="M118.5-51.8c5.4,0,9.7,4.3,9.8,9.6c0.1,5.3-4.3,9.7-9.6,9.8c-5.4,0-9.7-4.3-9.8-9.6
				c0,0,0,0,0-0.1l0,0C108.9-47.4,113.2-51.7,118.5-51.8L118.5-51.8L118.5-51.8 M118.5-52.3c-5.6,0-10.3,4.5-10.3,10.2
				s4.5,10.3,10.2,10.3c5.6,0,10.3-4.5,10.3-10.2c0,0,0,0,0-0.1C128.7-47.7,124.2-52.2,118.5-52.3L118.5-52.3z"/>
		</g>
	</g>
	<g>
		<g id="Ellipse_11-7_3_">
			<ellipse id="Ellipse_13-6_3_" class="st11" cx="118.3" cy="-42.1" rx="8.1" ry="8.2"/>
			<g id="Group_19-6_3_">
				<path id="Path_22-6_3_" class="st11" d="M118.3-50.1c4.4-0.1,8.1,3.4,8.1,7.9s-3.4,8.1-7.9,8.1s-8.1-3.4-8.1-7.9v-0.1l0,0
					C110.4-46.5,113.9-50,118.3-50.1L118.3-50.1L118.3-50.1 M118.3-50.5c-4.6-0.1-8.5,3.6-8.5,8.3s3.6,8.5,8.3,8.5
					c4.7,0,8.5-3.6,8.5-8.3v-0.1C126.6-46.7,122.9-50.5,118.3-50.5L118.3-50.5z"/>
			</g>
		</g>
		<g id="Ellipse_11-7_5_">
			<ellipse id="Ellipse_13-6_5_" class="st3" cx="112.8" cy="-45.6" rx="1.9" ry="1.9"/>
			<g id="Group_19-6_5_">
				<path id="Path_22-6_5_" class="st3" d="M112.8-47.5c1.1,0,1.9,0.8,1.9,1.9c0,1.1-0.8,1.9-1.9,1.9s-1.9-0.8-1.9-1.9l0,0l0,0
					C110.9-46.6,111.8-47.5,112.8-47.5L112.8-47.5L112.8-47.5 M112.8-47.6c-1.1,0-2,0.9-2,2c0,1.1,0.9,2,2,2s2-0.9,2-2l0,0
					C114.8-46.7,113.9-47.6,112.8-47.6L112.8-47.6z"/>
			</g>
		</g>
		<g id="Ellipse_11-7_6_">
			<ellipse id="Ellipse_13-6_6_" class="st3" cx="123.2" cy="-37.7" rx="1.9" ry="1.9"/>
			<g id="Group_19-6_6_">
				<path id="Path_22-6_6_" class="st3" d="M123.2-39.6c1.1,0,1.9,0.8,1.9,1.9c0,1.1-0.8,1.9-1.9,1.9s-1.9-0.8-1.9-1.9l0,0l0,0
					C121.3-38.7,122.2-39.6,123.2-39.6L123.2-39.6L123.2-39.6 M123.2-39.7c-1.1,0-2,0.9-2,2c0,1.1,0.9,2,2,2s2-0.9,2-2l0,0
					C125.2-38.8,124.3-39.7,123.2-39.7L123.2-39.7z"/>
			</g>
		</g>
	</g>
</g>
</svg>
